<?xml version="1.0" encoding="iso-8859-1"?>
<!-- Generator: Adobe Illustrator 19.0.0, SVG Export Plug-In . SVG Version: 6.00 Build 0)  -->
<svg version="1.1" id="Layer_1" xmlns="http://www.w3.org/2000/svg" xmlns:xlink="http://www.w3.org/1999/xlink" x="0px" y="0px"
	 viewBox="0 0 512 512" style="enable-background:new 0 0 512 512;" xml:space="preserve">
<rect x="148.827" y="10.199" style="fill:#E8655A;" width="316.716" height="491.602"/>
<rect x="78.447" y="10.199" style="fill:#FFBA57;" width="70.385" height="491.602"/>
<rect x="223.709" y="90.181" style="fill:#E6E6E6;" width="166.951" height="105.572"/>
<g>
	<path style="fill:#603813;" d="M465.544,512c5.632,0,10.199-4.567,10.199-10.199V10.199C475.743,4.567,471.176,0,465.544,0H78.447
		c-5.632,0-10.199,4.567-10.199,10.199v32.456H46.456c-5.632,0-10.199,4.567-10.199,10.199s4.567,10.199,10.199,10.199h21.792
		v79.841H46.456c-5.632,0-10.199,4.567-10.199,10.199s4.567,10.199,10.199,10.199h21.792v79.84H46.456
		c-5.632,0-10.199,4.567-10.199,10.199s4.567,10.199,10.199,10.199h21.792v79.841H46.456c-5.632,0-10.199,4.567-10.199,10.199
		c0,5.632,4.567,10.199,10.199,10.199h21.792v79.841H46.456c-5.632,0-10.199,4.567-10.199,10.199
		c0,5.632,4.567,10.199,10.199,10.199h21.792v37.789c0,5.632,4.567,10.199,10.199,10.199H465.544z M88.646,464.013h21.793
		c5.632,0,10.199-4.567,10.199-10.199c0-5.632-4.567-10.199-10.199-10.199H88.646v-79.841h21.793
		c5.632,0,10.199-4.567,10.199-10.199c0-5.632-4.567-10.199-10.199-10.199H88.646v-79.841h21.793
		c5.632,0,10.199-4.567,10.199-10.199c0-5.632-4.567-10.199-10.199-10.199H88.646v-79.84h21.793c5.632,0,10.199-4.567,10.199-10.199
		s-4.567-10.199-10.199-10.199H88.646V63.054h21.793c5.632,0,10.199-4.567,10.199-10.199s-4.567-10.199-10.199-10.199H88.646V20.398
		h49.983v471.203H88.646V464.013z M455.344,491.602H159.028V20.398h296.316V491.602z"/>
	<path style="fill:#603813;" d="M223.713,205.948H390.66c5.632,0,10.199-4.567,10.199-10.199V90.177
		c0-5.632-4.567-10.199-10.199-10.199H223.713c-5.632,0-10.199,4.567-10.199,10.199v105.572
		C213.514,201.381,218.08,205.948,223.713,205.948z M233.913,100.376h146.548v85.174H233.913V100.376z"/>
	<path style="fill:#603813;" d="M354.641,117.302h-7.465c-5.632,0-10.199,4.567-10.199,10.199s4.567,10.199,10.199,10.199h7.465
		c5.632,0,10.199-4.567,10.199-10.199S360.273,117.302,354.641,117.302z"/>
	<path style="fill:#603813;" d="M313.052,117.302h-51.187c-5.632,0-10.199,4.567-10.199,10.199s4.567,10.199,10.199,10.199h51.187
		c5.632,0,10.199-4.567,10.199-10.199S318.684,117.302,313.052,117.302z"/>
</g>
<g>
</g>
<g>
</g>
<g>
</g>
<g>
</g>
<g>
</g>
<g>
</g>
<g>
</g>
<g>
</g>
<g>
</g>
<g>
</g>
<g>
</g>
<g>
</g>
<g>
</g>
<g>
</g>
<g>
</g>
</svg>
